<?xml version="1.0" encoding="UTF-8"?>
<svg width="30px" height="30px" viewBox="0 0 30 30" version="1.1" xmlns="http://www.w3.org/2000/svg" xmlns:xlink="http://www.w3.org/1999/xlink">
    <!-- Generator: Sketch 49.1 (51147) - http://www.bohemiancoding.com/sketch -->
    <title>icon_nro</title>
    <desc>Created with Sketch.</desc>
    <defs></defs>
    <g id="exports" stroke="none" stroke-width="1" fill="none" fill-rule="evenodd">
        <g id="Desktop-HD" transform="translate(-72.000000, -690.000000)" fill="#000000" fill-rule="nonzero">
            <g id="icon_nro" transform="translate(71.000000, 690.000000)">
                <path d="M17,20 L15,20 C14.7238576,20 14.5,20.2238576 14.5,20.5 L14.5,22.5 C14.5,22.7761424 14.7238576,23 15,23 L17,23 C17.2761424,23 17.5,22.7761424 17.5,22.5 L17.5,20.5 C17.5,20.2238576 17.2761424,20 17,20 Z M16.5,22 L15.5,22 L15.5,21 L16.5,21 L16.5,22 Z" id="Shape"></path>
                <path d="M13,20 L11,20 C10.7238576,20 10.5,20.2238576 10.5,20.5 L10.5,22.5 C10.5,22.7761424 10.7238576,23 11,23 L13,23 C13.2761424,23 13.5,22.7761424 13.5,22.5 L13.5,20.5 C13.5,20.2238576 13.2761424,20 13,20 Z M12.5,22 L11.5,22 L11.5,21 L12.5,21 L12.5,22 Z" id="Shape"></path>
                <path d="M9,20 L7,20 C6.72385763,20 6.5,20.2238576 6.5,20.5 L6.5,22.5 C6.5,22.7761424 6.72385763,23 7,23 L9,23 C9.27614237,23 9.5,22.7761424 9.5,22.5 L9.5,20.5 C9.5,20.2238576 9.27614237,20 9,20 Z M8.5,22 L7.5,22 L7.5,21 L8.5,21 L8.5,22 Z" id="Shape"></path>
                <path d="M25,20 L23,20 C22.7238576,20 22.5,20.2238576 22.5,20.5 L22.5,22.5 C22.5,22.7761424 22.7238576,23 23,23 L25,23 C25.2761424,23 25.5,22.7761424 25.5,22.5 L25.5,20.5 C25.5,20.2238576 25.2761424,20 25,20 Z M24.5,22 L23.5,22 L23.5,21 L24.5,21 L24.5,22 Z" id="Shape"></path>
                <path d="M21,20 L19,20 C18.7238576,20 18.5,20.2238576 18.5,20.5 L18.5,22.5 C18.5,22.7761424 18.7238576,23 19,23 L21,23 C21.2761424,23 21.5,22.7761424 21.5,22.5 L21.5,20.5 C21.5,20.2238576 21.2761424,20 21,20 Z M20.5,22 L19.5,22 L19.5,21 L20.5,21 L20.5,22 Z" id="Shape"></path>
                <path d="M17,16 L15,16 C14.7238576,16 14.5,16.2238576 14.5,16.5 L14.5,18.5 C14.5,18.7761424 14.7238576,19 15,19 L17,19 C17.2761424,19 17.5,18.7761424 17.5,18.5 L17.5,16.5 C17.5,16.2238576 17.2761424,16 17,16 Z M16.5,18 L15.5,18 L15.5,17 L16.5,17 L16.5,18 Z" id="Shape"></path>
                <path d="M13,16 L11,16 C10.7238576,16 10.5,16.2238576 10.5,16.5 L10.5,18.5 C10.5,18.7761424 10.7238576,19 11,19 L13,19 C13.2761424,19 13.5,18.7761424 13.5,18.5 L13.5,16.5 C13.5,16.2238576 13.2761424,16 13,16 Z M12.5,18 L11.5,18 L11.5,17 L12.5,17 L12.5,18 Z" id="Shape"></path>
                <path d="M9,16 L7,16 C6.72385763,16 6.5,16.2238576 6.5,16.5 L6.5,18.5 C6.5,18.7761424 6.72385763,19 7,19 L9,19 C9.27614237,19 9.5,18.7761424 9.5,18.5 L9.5,16.5 C9.5,16.2238576 9.27614237,16 9,16 Z M8.5,18 L7.5,18 L7.5,17 L8.5,17 L8.5,18 Z" id="Shape"></path>
                <path d="M25,16 L23,16 C22.7238576,16 22.5,16.2238576 22.5,16.5 L22.5,18.5 C22.5,18.7761424 22.7238576,19 23,19 L25,19 C25.2761424,19 25.5,18.7761424 25.5,18.5 L25.5,16.5 C25.5,16.2238576 25.2761424,16 25,16 Z M24.5,18 L23.5,18 L23.5,17 L24.5,17 L24.5,18 Z" id="Shape"></path>
                <path d="M21,16 L19,16 C18.7238576,16 18.5,16.2238576 18.5,16.5 L18.5,18.5 C18.5,18.7761424 18.7238576,19 19,19 L21,19 C21.2761424,19 21.5,18.7761424 21.5,18.5 L21.5,16.5 C21.5,16.2238576 21.2761424,16 21,16 Z M20.5,18 L19.5,18 L19.5,17 L20.5,17 L20.5,18 Z" id="Shape"></path>
                <path d="M17,12 L15,12 C14.7238576,12 14.5,12.2238576 14.5,12.5 L14.5,14.5 C14.5,14.7761424 14.7238576,15 15,15 L17,15 C17.2761424,15 17.5,14.7761424 17.5,14.5 L17.5,12.5 C17.5,12.2238576 17.2761424,12 17,12 Z M16.5,14 L15.5,14 L15.5,13 L16.5,13 L16.5,14 Z" id="Shape"></path>
                <path d="M13,12 L11,12 C10.7238576,12 10.5,12.2238576 10.5,12.5 L10.5,14.5 C10.5,14.7761424 10.7238576,15 11,15 L13,15 C13.2761424,15 13.5,14.7761424 13.5,14.5 L13.5,12.5 C13.5,12.2238576 13.2761424,12 13,12 Z M12.5,14 L11.5,14 L11.5,13 L12.5,13 L12.5,14 Z" id="Shape"></path>
                <path d="M9,12 L7,12 C6.72385763,12 6.5,12.2238576 6.5,12.5 L6.5,14.5 C6.5,14.7761424 6.72385763,15 7,15 L9,15 C9.27614237,15 9.5,14.7761424 9.5,14.5 L9.5,12.5 C9.5,12.2238576 9.27614237,12 9,12 Z M8.5,14 L7.5,14 L7.5,13 L8.5,13 L8.5,14 Z" id="Shape"></path>
                <path d="M25,12 L23,12 C22.7238576,12 22.5,12.2238576 22.5,12.5 L22.5,14.5 C22.5,14.7761424 22.7238576,15 23,15 L25,15 C25.2761424,15 25.5,14.7761424 25.5,14.5 L25.5,12.5 C25.5,12.2238576 25.2761424,12 25,12 Z M24.5,14 L23.5,14 L23.5,13 L24.5,13 L24.5,14 Z" id="Shape"></path>
                <path d="M21,12 L19,12 C18.7238576,12 18.5,12.2238576 18.5,12.5 L18.5,14.5 C18.5,14.7761424 18.7238576,15 19,15 L21,15 C21.2761424,15 21.5,14.7761424 21.5,14.5 L21.5,12.5 C21.5,12.2238576 21.2761424,12 21,12 Z M20.5,14 L19.5,14 L19.5,13 L20.5,13 L20.5,14 Z" id="Shape"></path>
                <path d="M17,8 L15,8 C14.7238576,8 14.5,8.22385763 14.5,8.5 L14.5,10.5 C14.5,10.7761424 14.7238576,11 15,11 L17,11 C17.2761424,11 17.5,10.7761424 17.5,10.5 L17.5,8.5 C17.5,8.22385763 17.2761424,8 17,8 Z M16.5,10 L15.5,10 L15.5,9 L16.5,9 L16.5,10 Z" id="Shape"></path>
                <path d="M13,8 L11,8 C10.7238576,8 10.5,8.22385763 10.5,8.5 L10.5,10.5 C10.5,10.7761424 10.7238576,11 11,11 L13,11 C13.2761424,11 13.5,10.7761424 13.5,10.5 L13.5,8.5 C13.5,8.22385763 13.2761424,8 13,8 Z M12.5,10 L11.5,10 L11.5,9 L12.5,9 L12.5,10 Z" id="Shape"></path>
                <path d="M9,8 L7,8 C6.72385763,8 6.5,8.22385763 6.5,8.5 L6.5,10.5 C6.5,10.7761424 6.72385763,11 7,11 L9,11 C9.27614237,11 9.5,10.7761424 9.5,10.5 L9.5,8.5 C9.5,8.22385763 9.27614237,8 9,8 Z M8.5,10 L7.5,10 L7.5,9 L8.5,9 L8.5,10 Z" id="Shape"></path>
                <path d="M25,8 L23,8 C22.7238576,8 22.5,8.22385763 22.5,8.5 L22.5,10.5 C22.5,10.7761424 22.7238576,11 23,11 L25,11 C25.2761424,11 25.5,10.7761424 25.5,10.5 L25.5,8.5 C25.5,8.22385763 25.2761424,8 25,8 Z M24.5,10 L23.5,10 L23.5,9 L24.5,9 L24.5,10 Z" id="Shape"></path>
                <path d="M21,8 L19,8 C18.7238576,8 18.5,8.22385763 18.5,8.5 L18.5,10.5 C18.5,10.7761424 18.7238576,11 19,11 L21,11 C21.2761424,11 21.5,10.7761424 21.5,10.5 L21.5,8.5 C21.5,8.22385763 21.2761424,8 21,8 Z M20.5,10 L19.5,10 L19.5,9 L20.5,9 L20.5,10 Z" id="Shape"></path>
                <path d="M17,4 L15,4 C14.7238576,4 14.5,4.22385763 14.5,4.5 L14.5,6.5 C14.5,6.77614237 14.7238576,7 15,7 L17,7 C17.2761424,7 17.5,6.77614237 17.5,6.5 L17.5,4.5 C17.5,4.22385763 17.2761424,4 17,4 Z M16.5,6 L15.5,6 L15.5,5 L16.5,5 L16.5,6 Z" id="Shape"></path>
                <path d="M13,4 L11,4 C10.7238576,4 10.5,4.22385763 10.5,4.5 L10.5,6.5 C10.5,6.77614237 10.7238576,7 11,7 L13,7 C13.2761424,7 13.5,6.77614237 13.5,6.5 L13.5,4.5 C13.5,4.22385763 13.2761424,4 13,4 Z M12.5,6 L11.5,6 L11.5,5 L12.5,5 L12.5,6 Z" id="Shape"></path>
                <path d="M9,4 L7,4 C6.72385763,4 6.5,4.22385763 6.5,4.5 L6.5,6.5 C6.5,6.77614237 6.72385763,7 7,7 L9,7 C9.27614237,7 9.5,6.77614237 9.5,6.5 L9.5,4.5 C9.5,4.22385763 9.27614237,4 9,4 Z M8.5,6 L7.5,6 L7.5,5 L8.5,5 L8.5,6 Z" id="Shape"></path>
                <path d="M25,4 L23,4 C22.7238576,4 22.5,4.22385763 22.5,4.5 L22.5,6.5 C22.5,6.77614237 22.7238576,7 23,7 L25,7 C25.2761424,7 25.5,6.77614237 25.5,6.5 L25.5,4.5 C25.5,4.22385763 25.2761424,4 25,4 Z M24.5,6 L23.5,6 L23.5,5 L24.5,5 L24.5,6 Z" id="Shape"></path>
                <path d="M21,4 L19,4 C18.7238576,4 18.5,4.22385763 18.5,4.5 L18.5,6.5 C18.5,6.77614237 18.7238576,7 19,7 L21,7 C21.2761424,7 21.5,6.77614237 21.5,6.5 L21.5,4.5 C21.5,4.22385763 21.2761424,4 21,4 Z M20.5,6 L19.5,6 L19.5,5 L20.5,5 L20.5,6 Z" id="Shape"></path>
                <path d="M30.0565,26.9565 C30.6539299,26.4831588 31.0015968,25.7622151 31,25 C31.0011581,24.4778826 30.8363993,23.9688988 30.5295,23.5465 C30.3403821,23.26614 30.2956591,22.9126238 30.409,22.594 C30.512041,22.2615561 30.5273705,21.9081169 30.4535,21.568 C30.318859,20.9437654 29.892261,20.4223545 29.3070554,20.1667543 C28.7218498,19.9111541 28.049435,19.9525492 27.5,20.278 L27.5,3 L28.5,3 L28.5,2 L26.5,2 L26.5,0.5 C26.5,0.223857625 26.2761424,0 26,0 L6,0 C5.72385763,0 5.5,0.223857625 5.5,0.5 L5.5,2 L3.5,2 L3.5,3 L4.5,3 L4.5,20.271 C4.30574094,20.1558556 4.09288323,20.075484 3.871,20.0335 C3.28572479,19.9230138 2.68165912,20.079134 2.22321061,20.4593698 C1.76476209,20.8396056 1.4996392,21.4043876 1.5,22 C1.49962814,22.2049659 1.53117263,22.40874 1.5935,22.604 C1.70587728,22.922591 1.65904147,23.2757182 1.4675,23.554 C0.982830772,24.2291894 0.866197413,25.1013919 1.15643351,25.8802038 C1.44666961,26.6590157 2.1056634,27.2421689 2.914,27.4355 C2.9425,27.442 2.9715,27.4445 3,27.45 L3,29 L1,29 L1,30 L31.0000061,30 L31,29 L29,29 L29,27.443 C29.3857831,27.3669695 29.7479293,27.2002075 30.0565,26.9565 Z M4.5,29 L4,29 L4,27.443 C4.17189237,27.4071704 4.33949743,27.3532016 4.5,27.282 L4.5,29 Z M4.4335,26.174 C3.85021138,26.6420932 3.01094666,26.6078858 2.46768729,26.093876 C1.92442793,25.5798662 1.84387164,24.7437764 2.279,24.1355 C2.65678389,23.6017375 2.75622787,22.9193846 2.5465,22.3 C2.51546332,22.2030337 2.49977396,22.101812 2.5,22 C2.49996286,21.7030924 2.63186367,21.4215208 2.86,21.2315 C3.0391178,21.0808577 3.26595971,20.9988047 3.5,21 C3.56488657,21.0001868 3.62963275,21.0060424 3.6935,21.0175 C3.97179235,21.0724047 4.21367389,21.2429134 4.35891228,21.4865668 C4.50415067,21.7302201 4.53907916,22.0240907 4.455,22.295 C4.24515143,22.914902 4.34319727,23.5976947 4.719,24.1335 C4.90233405,24.3851503 5.00075697,24.6886502 5,25 C5.0009961,25.4574557 4.79221879,25.8901205 4.4335,26.174 Z M6.5,1 L25.5,1 L25.5,2 L6.5,2 L6.5,1 Z M15.5,29 L14,29 L14,27 L15.5,27 L15.5,29 Z M18,29 L16.5,29 L16.5,27 L18,27 L18,29 Z M20,29 L19,29 L19,26.5 C19,26.2238576 18.7761424,26 18.5,26 L13.5,26 C13.2238576,26 13,26.2238576 13,26.5 L13,29 L12,29 L12,25 L20,25 L20,29 Z M26.5,23.491 C26.488,23.5105 26.4805,23.5325 26.4675,23.5515 C25.8330578,24.4399311 25.8462004,25.6367158 26.5,26.511 L26.5,29 L21,29 L21,25 L21.5,25 L21.5,24 L10.5,24 L10.5,25 L11,25 L11,29 L5.5,29 L5.5,26.5 C6.15791755,25.6292882 6.17089768,24.4312623 5.532,23.5465 C5.5195,23.53 5.5135,23.51 5.5025,23.4925 L5.5025,3 L26.5,3 L26.5,23.491 Z M28,29 L27.5,29 L27.5,27.2925 C27.6334136,27.3518938 27.7719942,27.3989242 27.914,27.433 C27.9425,27.4395 27.9715,27.442 28,27.4475 L28,29 Z M28.1375,26.4585 C27.6556877,26.3399488 27.2640455,25.9901453 27.0920437,25.5247284 C26.9200418,25.0593116 26.9900781,24.5388877 27.279,24.1355 C27.6567839,23.6017375 27.7562279,22.9193846 27.5465,22.3 C27.5154633,22.2030337 27.499774,22.101812 27.5,22 C27.4999629,21.7030924 27.6318637,21.4215208 27.86,21.2315 C28.0391178,21.0808577 28.2659597,20.9988047 28.5,21 C28.5648866,21.0001868 28.6296327,21.0060424 28.6935,21.0175 C28.9717924,21.0724047 29.2136739,21.2429134 29.3589123,21.4865668 C29.5041507,21.7302201 29.5390792,22.0240907 29.455,22.295 C29.2451514,22.914902 29.3431973,23.5976947 29.719,24.1335 C29.902334,24.3851503 30.000757,24.6886502 30,25 C29.9993407,25.461623 29.7867269,25.8973742 29.4232805,26.1819844 C29.0598342,26.4665946 28.5858174,26.5685351 28.1375,26.4585 Z" id="Shape"></path>
                <path d="M9,24 L7,24 C6.72385763,24 6.5,24.2238576 6.5,24.5 L6.5,27.5 C6.5,27.7761424 6.72385763,28 7,28 L9,28 C9.27614237,28 9.5,27.7761424 9.5,27.5 L9.5,24.5 C9.5,24.2238576 9.27614237,24 9,24 Z M8.5,27 L7.5,27 L7.5,25 L8.5,25 L8.5,27 Z" id="Shape"></path>
                <path d="M25,24 L23,24 C22.7238576,24 22.5,24.2238576 22.5,24.5 L22.5,27.5 C22.5,27.7761424 22.7238576,28 23,28 L25,28 C25.2761424,28 25.5,27.7761424 25.5,27.5 L25.5,24.5 C25.5,24.2238576 25.2761424,24 25,24 Z M24.5,27 L23.5,27 L23.5,25 L24.5,25 L24.5,27 Z" id="Shape"></path>
            </g>
        </g>
    </g>
</svg>