<?xml version="1.0" encoding="UTF-8"?>
<svg width="34px" height="33px" viewBox="0 0 34 33" version="1.1" xmlns="http://www.w3.org/2000/svg" xmlns:xlink="http://www.w3.org/1999/xlink">
    <!-- Generator: Sketch 49.1 (51147) - http://www.bohemiancoding.com/sketch -->
    <title>icon_programme</title>
    <desc>Created with Sketch.</desc>
    <defs></defs>
    <g id="exports" stroke="none" stroke-width="1" fill="none" fill-rule="evenodd">
        <g id="Desktop-HD" transform="translate(-143.000000, -685.000000)" fill="#010101" fill-rule="nonzero">
            <g id="icon_programme" transform="translate(143.000000, 685.000000)">
                <path d="M33,24.1 L29.4,24.1 L29.4,21.35 C29.4,21.05 29.2,20.85 28.9,20.85 L17.65,20.85 L17.65,19.85 C22.9,19.6 27.05,15.25 27.05,9.95 C27.1,4.45 22.65,0 17.15,0 C11.65,0 7.25,4.45 7.25,9.95 C7.25,15.25 11.45,19.6 16.65,19.85 L16.65,20.85 L5.4,20.85 C5.1,20.85 4.9,21.05 4.9,21.35 L4.9,24.1 L1,24.1 C0.7,24.1 0.5,24.3 0.5,24.6 L0.5,32.5 C0.5,32.8 0.7,33 1,33 L9.15,33 C9.45,33 9.65,32.8 9.65,32.5 L9.65,24.6 C9.65,24.3 9.45,24.1 9.15,24.1 L5.9,24.1 L5.9,21.85 L16.65,21.85 L16.65,24.1 L12.9,24.1 C12.6,24.1 12.4,24.3 12.4,24.6 L12.4,32.5 C12.4,32.8 12.6,33 12.9,33 L21.05,33 C21.35,33 21.55,32.8 21.55,32.5 L21.55,24.6 C21.55,24.3 21.35,24.1 21.05,24.1 L17.6,24.1 L17.6,21.85 L28.35,21.85 L28.35,24.1 L24.75,24.1 C24.45,24.1 24.25,24.3 24.25,24.6 L24.25,32.5 C24.25,32.8 24.45,33 24.75,33 L33,33 C33.3,33 33.5,32.8 33.5,32.5 L33.5,24.6 C33.5,24.3 33.3,24.1 33,24.1 Z M8.25,10.45 L10.75,10.45 C10.8,11.75 11,13 11.35,14.15 L9.3,14.15 C8.7,13 8.35,11.75 8.25,10.45 Z M26.05,9.45 L23.55,9.45 C23.5,8.15 23.3,6.9 22.95,5.75 L25,5.75 C25.6,6.85 26,8.1 26.05,9.45 Z M18.55,18.55 C18.95,17.65 19.2,16.45 19.4,15.15 L21.5,15.15 C20.85,16.75 19.8,18 18.55,18.55 Z M19.55,14.1 C19.7,12.8 19.75,11.5 19.8,10.4 L22.55,10.4 C22.5,11.75 22.3,13 21.95,14.1 L19.55,14.1 Z M17.15,1 C17.45,1.05 18.05,2.25 18.45,4.75 L15.9,4.75 C16.25,2.25 16.85,1.05 17.15,1 Z M18.55,5.75 C18.65,6.8 18.75,8.05 18.75,9.45 L15.5,9.45 C15.5,8.05 15.6,6.8 15.7,5.75 L18.55,5.75 Z M18.8,10.45 C18.8,11.85 18.7,13.1 18.6,14.15 L15.8,14.15 C15.7,13.1 15.6,11.9 15.6,10.45 L18.8,10.45 Z M23.55,10.45 L26.05,10.45 C26,11.8 25.6,13.05 25.05,14.15 L23,14.15 C23.3,13 23.5,11.75 23.55,10.45 Z M22.55,9.45 L19.8,9.45 C19.8,8.35 19.7,7.05 19.55,5.75 L21.9,5.75 C22.3,6.85 22.5,8.1 22.55,9.45 Z M19.45,4.75 C19.25,3.45 19,2.2 18.6,1.35 C19.8,1.9 20.85,3.1 21.6,4.75 L19.45,4.75 Z M15.75,1.3 C15.35,2.2 15.1,3.4 14.9,4.7 L12.8,4.7 C13.5,3.1 14.55,1.85 15.75,1.3 Z M14.75,5.75 C14.6,7.05 14.55,8.35 14.5,9.45 L11.75,9.45 C11.8,8.1 12,6.85 12.35,5.75 L14.75,5.75 Z M10.75,9.45 L8.25,9.45 C8.3,8.1 8.7,6.85 9.25,5.75 L11.3,5.75 C11,6.85 10.8,8.1 10.75,9.45 Z M11.75,10.45 L14.5,10.45 C14.5,11.55 14.6,12.85 14.75,14.15 L12.4,14.15 C12.05,13 11.8,11.75 11.75,10.45 Z M14.9,15.1 C15.1,16.4 15.35,17.65 15.75,18.5 C14.55,17.95 13.5,16.75 12.75,15.1 L14.9,15.1 Z M15.9,15.1 L18.45,15.1 C18.05,17.6 17.45,18.8 17.15,18.85 C16.85,18.8 16.25,17.6 15.9,15.1 Z M20.8,18.05 C21.5,17.25 22.1,16.25 22.6,15.1 L24.4,15.1 C23.5,16.4 22.25,17.4 20.8,18.05 Z M24.4,4.75 L22.6,4.75 C22.15,3.6 21.55,2.6 20.8,1.8 C22.25,2.45 23.5,3.45 24.4,4.75 Z M13.5,1.8 C12.8,2.6 12.2,3.6 11.7,4.75 L9.9,4.75 C10.8,3.45 12.05,2.45 13.5,1.8 Z M9.9,15.1 L11.7,15.1 C12.15,16.25 12.75,17.25 13.5,18.05 C12.05,17.4 10.8,16.4 9.9,15.1 Z M8.65,32 L1.5,32 L1.5,25.1 L8.65,25.1 L8.65,32 Z M20.6,32 L13.4,32 L13.4,25.1 L20.55,25.1 L20.55,32 L20.6,32 Z M32.5,32 L25.35,32 L25.35,25.1 L32.5,25.1 L32.5,32 Z" id="Shape"></path>
            </g>
        </g>
    </g>
</svg>