<?xml version="1.0" encoding="UTF-8"?>
<svg width="34px" height="33px" viewBox="0 0 34 33" version="1.1" xmlns="http://www.w3.org/2000/svg" xmlns:xlink="http://www.w3.org/1999/xlink">
    <!-- Generator: Sketch 49.1 (51147) - http://www.bohemiancoding.com/sketch -->
    <title>icon_project</title>
    <desc>Created with Sketch.</desc>
    <defs></defs>
    <g id="exports" stroke="none" stroke-width="1" fill="none" fill-rule="evenodd">
        <g id="Desktop-HD" transform="translate(-233.000000, -690.000000)" fill="#010101" fill-rule="nonzero">
            <g id="icon_project" transform="translate(233.000000, 690.000000)">
                <g id="Group" transform="translate(0.500000, 0.000000)">
                    <path d="M31.35,3.5 L15.8,3.5 L14.3,1.2 C14.3,1.2 14.3,1.15 14.25,1.15 C13.6,0.4 12.7,0 11.7,0 L1.05,0 C0.45,0 0,0.45 0,1.05 L0,23.75 C0,24.65 0.75,25.35 1.65,25.35 L11.2,25.35 C11.5,25.35 11.7,25.15 11.7,24.85 C11.7,24.55 11.5,24.35 11.2,24.35 L1.65,24.35 C1.3,24.35 1,24.1 1,23.75 L1,9.35 L32,9.35 L32,23.75 C32,24.1 31.7,24.35 31.35,24.35 L30.45,24.35 C30.15,24.35 29.95,24.55 29.95,24.85 C29.95,25.15 30.15,25.35 30.45,25.35 L31.35,25.35 C32.25,25.35 33,24.65 33,23.75 L33,5.15 C33,4.5 32.3,3.5 31.35,3.5 Z M1,8.35 L1,1.05 C1,1 1,1 1.05,1 L11.7,1 C12.4,1 13.05,1.3 13.45,1.8 L15.1,4.3 C15.2,4.45 15.35,4.5 15.5,4.5 L31.3,4.5 C31.65,4.5 31.95,4.95 31.95,5.1 L31.95,8.35 L1,8.35 Z" id="Shape"></path>
                    <path d="M25.15,20.9 L30.55,16 C30.9,15.7 31.1,15.3 31.1,14.85 C31.1,14.4 30.95,13.95 30.65,13.65 L29.25,12.1 C28.6,11.4 27.55,11.35 26.85,12 L24.55,14 C24.55,14 24.5,14 24.5,14.05 L21.25,17 L15.65,11.3 C15.45,11.1 15.15,11.1 14.95,11.3 L9.75,16.4 C9.65,16.5 9.6,16.6 9.6,16.75 C9.6,16.9 9.65,17 9.75,17.1 L15.15,22.55 L11.45,25.95 C11.45,25.95 11.45,25.95 11.45,25.95 C11.45,25.95 11.35,26.05 11.35,26.05 L7.85,32.25 C7.75,32.45 7.75,32.65 7.9,32.85 C8.05,33 8.3,33.05 8.45,32.95 L14.9,30.1 C14.95,30.1 15.05,30.05 15.1,30 C15.1,30 15.1,30 15.1,30 C15.1,30 15.1,30 15.1,30 L19,26.45 C19.35,26.8 25.2,32.75 25.2,32.75 C25.3,32.85 25.45,32.9 25.55,32.9 C25.7,32.9 25.8,32.85 25.9,32.75 L31.1,27.65 C31.2,27.55 31.25,27.45 31.25,27.3 C31.25,27.15 31.2,27.05 31.1,26.95 L25.15,20.9 Z M23.55,19.3 L26.35,16.8 L27.2,17.7 L24.45,20.2 L23.55,19.3 Z M27.5,12.7 C27.8,12.45 28.2,12.45 28.5,12.75 L29.9,14.3 C30,14.45 30.1,14.6 30.1,14.8 C30.1,15 30,15.15 29.9,15.3 L27.95,17.05 L26.8,15.75 C26.8,15.75 26.8,15.75 26.8,15.75 C26.8,15.75 26.8,15.75 26.8,15.75 L25.65,14.45 L27.5,12.7 Z M24.8,15.15 L25.65,16.05 L22.85,18.6 L22,17.7 L24.8,15.15 Z M12.45,26.35 L15.85,23.25 L16.7,24.1 L13.25,27.2 L12.45,26.35 Z M11.85,27.15 L13.95,29.45 L9.45,31.45 L11.85,27.15 Z M14.8,28.9 L13.9,27.9 L17.35,24.8 L18.25,25.75 L14.8,28.9 Z M25.6,31.7 L24.35,30.45 L27.25,27.6 C27.45,27.4 27.45,27.1 27.25,26.9 C27.05,26.7 26.75,26.7 26.55,26.9 L23.65,29.75 L22.4,28.5 L24,26.9 C24.2,26.7 24.2,26.4 24,26.2 C23.8,26 23.5,26 23.3,26.2 L21.7,27.8 L20.5,26.55 L23.4,23.7 C23.6,23.5 23.6,23.2 23.4,23 C23.2,22.8 22.9,22.8 22.7,23 L19.8,25.85 L18.6,24.6 L20.2,23 C20.4,22.8 20.4,22.5 20.2,22.3 C20,22.1 19.7,22.1 19.5,22.3 L17.9,23.9 L16.7,22.65 L19.6,19.8 C19.8,19.6 19.8,19.3 19.6,19.1 C19.4,18.9 19.1,18.9 18.9,19.1 L16,21.95 L14.8,20.7 L16.4,19.1 C16.6,18.9 16.6,18.6 16.4,18.4 C16.2,18.2 15.9,18.2 15.7,18.4 L14,20 L12.8,18.75 L15.7,15.9 C15.9,15.7 15.9,15.4 15.7,15.2 C15.5,15 15.2,15 15,15.2 L12.1,18.05 L10.85,16.75 L15.3,12.35 L24.05,21.25 L30.05,27.35 L25.6,31.7 Z" id="Shape"></path>
                    <path d="M2.9,13.6 L10.75,13.6 C11.05,13.6 11.25,13.4 11.25,13.1 C11.25,12.8 11.05,12.6 10.75,12.6 L2.9,12.6 C2.6,12.6 2.4,12.8 2.4,13.1 C2.4,13.35 2.65,13.6 2.9,13.6 Z" id="Shape"></path>
                    <path d="M2.9,17.55 L8.25,17.55 C8.55,17.55 8.75,17.35 8.75,17.05 C8.75,16.75 8.55,16.55 8.25,16.55 L2.9,16.55 C2.6,16.55 2.4,16.75 2.4,17.05 C2.4,17.35 2.65,17.55 2.9,17.55 Z" id="Shape"></path>
                    <path d="M2.9,21.55 L10.75,21.55 C11.05,21.55 11.25,21.35 11.25,21.05 C11.25,20.75 11.05,20.55 10.75,20.55 L2.9,20.55 C2.6,20.55 2.4,20.75 2.4,21.05 C2.4,21.3 2.65,21.55 2.9,21.55 Z" id="Shape"></path>
                </g>
            </g>
        </g>
    </g>
</svg>