<?xml version="1.0" encoding="UTF-8"?>
<svg width="910px" height="475px" viewBox="0 0 910 475" version="1.1" xmlns="http://www.w3.org/2000/svg" xmlns:xlink="http://www.w3.org/1999/xlink">
    <!-- Generator: Sketch 49.1 (51147) - http://www.bohemiancoding.com/sketch -->
    <title>map</title>
    <desc>Created with Sketch.</desc>
    <defs></defs>
    <g id="exports" stroke="none" stroke-width="1" fill="none" fill-rule="evenodd">
        <g id="Desktop-HD" transform="translate(-322.000000, -62.000000)" fill="#000000" fill-rule="nonzero">
            <g id="map" transform="translate(322.000000, 62.000000)">
                <g id="Group">
                    <polygon id="Shape" points="298.5892 283.054436 269.7422 261.61223 226.9176 257.311031 220.5476 267.717746 211.8753 264.838129 207.6256 248.763309 194.8037 247.870264 200.1363 232.661151 189.4438 231.585851 178.724 240.206475 171.2347 229.435252 177.6593 211.23717 206.5791 206.935971 211.8753 221.935492 219.4192 220.88753 219.4192 206.935971 239.7395 179.069305 265.4288 165.126859 298.5892 150.163789 275.0384 97.6016787 264.3459 104.035252 255.8192 80.4697842 235.4352 81.5359712 230.1663 123.345084 222.6497 124.429496 191.5732 91.1863309 197.9978 74.0270983 230.1663 67.6117506 230.1663 26.8597122 149.8315 35.4529976 108.1353 10.7940048 88.8524 29.0103118 36.3636 0.0592326139 7.4984 17.2093525 18.1909 33.3206235 6.3973 33.3206235 3.2032 45.0942446 19.2465 47.2357314 3.2032 60.093765 8.5358 78.3100719 22.4588 81.5359712 0 99.7613909 35.3171 82.6203837 54.5636 71.8582734 85.6128 91.1863309 110.2465 132.986331 110.2465 170.503357 125.2342 198.379137 149.8315 236.96235 179.8251 247.642446 192.6652 254.094245 207.6256 273.385851 218.0815 271.763789 206.5791 290.563309 216.1887 329.110072 236.5454 347.317266 211.8753 447.055875 220.493 468.488969 245.0994 474.913429 230.1663 458.820384 250.4502 420.246283 294.3395 382.729257 297.5427 365.579137 318.9732 362.344125 340.3855 318.411751 302.9208 300.213669"></polygon>
                    <polygon id="Shape" points="809.8909 290.590647 807.5977 308.797842 792.1823 303.193525 795.0306 293.333573 778.1774 291.966667 756.3374 312.342686 733.1688 320.744604 738.8381 352.311031 736.6996 358.580576 745.1717 363.501439 779.5242 354.990168 792.8102 362.726859 799.1347 359.20024 803.348 371.967146 820.8564 376.897122 833.5145 369.142206 840.5215 331.28801 821.5935 312.342686"></polygon>
                    <polygon id="Shape" points="724.7695 273.01223 743.0059 276.511511 751.4507 250.531175 746.5094 246.284652 721.9758 261.758034"></polygon>
                    <polygon id="Shape" points="830.6753 291.966667 824.3963 278.607434 795.6403 264.592086 780.9074 265.968106 799.8263 285.642446 810.6917 286.407914 815.269 282.115827"></polygon>
                    <polygon id="Shape" points="815.269 106.504796 810.3914 106.504796 809.6634 131.783453 797.0508 158.47458 780.9074 170.448681 780.1976 180.955635 809.6634 163.404556 811.0557 145.142686 820.8564 136.011751 813.1942 129.696643 817.3438 114.970504"></polygon>
                    <polygon id="Shape" points="891.0356 361.496643 893.1559 381.170983 871.4069 401.565228 885.4573 402.959472 898.0335 383.968585 907.8706 370.645803 901.5643 369.971463"></polygon>
                    <polygon id="Shape" points="422.1672 65.8894484 422.1672 86.3383693 436.3359 80.1143885 440.3308 73.8266187 424.9791 44.264988 415.9428 50.5436451 416.4979 58.4808153 407.9621 68.7690647 407.3706 79.5402878 417.6263 79.5402878"></polygon>
                    <polygon id="Shape" points="550.4772 306.902398 549.9039 329.67506 559.0403 333.620863 568.1039 306.33741 565.8107 294.982974"></polygon>
                    <path d="M884.7293,64.3767386 L910,50.3067146 L902.9839,30.6597122 L716.8798,4.36954436 C716.8798,4.36954436 604.1126,16.316307 541.9232,22.8683453 L488.0421,12.9263789 L466.4296,24.8549161 L457.9302,45.8870504 L447.6836,53.8788969 L447.1194,71.5028777 L452.8069,74.883693 L464.7188,68.0856115 L470.4518,86.2563549 L480.6347,82.2832134 L487.4688,64.0760192 L480.6347,56.7038369 L486.9046,43.0621103 L494.2301,33.9402878 L498.7255,34.6510791 L494.5304,45.3220624 L489.7347,48.757554 L491.4819,53.0860911 L491.1543,53.8151079 L491.7822,53.8788969 L495.9591,64.0760192 L507.8983,60.6952038 L512.0024,65.5158273 L498.7983,69.8079137 L501.6739,80.6155875 L493.1017,77.7177458 L486.8955,93.664988 L464.7097,93.1 L460.733,81.7273381 L455.637,88.5436451 L457.3478,95.9431655 L449.3762,96.5263789 L439.7302,109.594005 L422.1308,115.280336 L426.6899,124.958034 L434.0154,136.886571 L410.774,135.173381 L411.9024,157.946043 L430.0842,160.789209 L441.9961,141.998801 L459.0677,133.460192 L466.4114,141.998801 L476.6125,155.686091 L484.0381,147.101918 L469.8239,137.478897 L469.2415,128.366187 L476.0574,131.765228 L487.4415,140.896163 L486.8773,149.935971 L495.3767,160.780096 L499.3625,147.092806 L503.9125,149.389209 L510.1369,160.205995 L529.3834,163.413669 L526.253,173.947962 L519.0185,178.285612 L491.1361,171.141247 L484.12,180.964748 L465.9018,169.017986 L463.0808,157.125899 L418.1996,164.817026 L395.031,192.920624 L390.7995,230.838609 L414.6961,254.039568 L457.4934,251.214628 L470.0878,290.563309 L465.2193,313.026139 L485.5305,362.198321 L508.6991,357.979137 L531.8222,314.420384 L544.4439,304.58777 L540.9677,274.415588 L563.4174,254.030456 L570.4335,229.435252 L547.9656,239.978657 L525.0336,187.380096 L529.7201,186.578177 L552.1971,230.829496 L595.7042,204.849161 L580.9258,193.622302 L569.7146,199.235731 L562.6894,182.358993 L567.6125,179.579616 L577.4132,187.981535 L611.1378,194.305755 L625.1154,211.182494 L637.7553,242.776259 L647.6106,232.970983 L647.6106,221.024221 L674.9379,202.015108 L684.7568,223.129257 L692.8922,221.069784 L694.5757,242.07458 L703.0114,257.520624 L684.7659,248.380576 L698.1156,267.325899 L712.8485,281.414149 L747.9108,287.720144 L728.9828,280.010791 L714.9051,275.080815 L710.0275,252.590647 L698.7799,239.905755 L699.2076,227.229976 L712.1296,240.634772 L724.7513,230.10048 L712.8576,212.531175 L718.4359,203.40024 L744.4073,201.996882 L756.3192,180.244844 L747.929,156.396882 L758.4486,145.151799 L766.2018,155.686091 L769.0046,169.017986 L778.1137,164.142686 L774.6102,149.370983 L782.3179,138.135012 L794.9578,136.048201 L809.6634,95.2870504 L797.0508,86.1561151 L814.5683,69.2793765 L837.7369,70.6736211 L856.6922,55.2458034 L871.4069,53.1134293 L847.574,81.9369305 L848.2656,107.206475 L866.5202,84.7254197 L865.8104,68.5503597 L884.7293,64.3767386 Z M541.4045,148.213669 L528.9557,144.841966 L511.875,147.676019 L507.9074,140.31295 L516.9801,124.37482 L546.5278,139.757074 L541.4045,148.213669 Z M561.8795,157.93693 L564.6641,147.101918 L558.4397,131.209353 L576.0664,121.54988 L576.0664,130.061151 L569.2323,132.904317 L574.9562,141.452038 L577.7226,159.085132 L561.8795,157.93693 Z" id="Shape"></path>
                    <polygon id="Shape" points="323.3685 20.8635492 307.5618 16.5532374 288.0332 37.4395683 313.1583 102.932614 325.0429 105.857794 326.0075 84.5796163 334.0337 79.6131894 334.4978 71.5302158 342.7788 55.9383693 337.0094 44.1009592"></polygon>
                </g>
            </g>
        </g>
    </g>
</svg>